<svg version="1.1" xmlns="http://www.w3.org/2000/svg" xmlns:xlink="http://www.w3.org/1999/xlink" width="479.9777" height="360" viewBox="0,0,479.9777,360"><g transform="translate(-0.1083,0)"><g data-paper-data="{&quot;isPaintingLayer&quot;:true}" fill-rule="nonzero" stroke-linejoin="miter" stroke-miterlimit="10" stroke-dasharray="" stroke-dashoffset="0" style="mix-blend-mode: normal"><path d="M0.1083,0h479.9777v360h-479.9777z" fill="#797979" stroke="none" stroke-width="1.00207" stroke-linecap="butt"/><path d="M72,128l0.3,0.3" fill="none" stroke="#797979" stroke-width="2" stroke-linecap="round"/><path d="M180.13093,142.21471c2.5,0 2.5,2.5 2.5,2.5v1.5015c-0.00596,2.4257 0.16475,5.59086 -0.80579,7.83505c-2.73821,6.3316 -9.72966,11.73402 -15.62356,14.68747c-3.10179,1.55431 -11.09544,5.46809 -14.68265,3.43486c-1.45588,-0.8252 -0.74473,-3.27156 -0.91503,-4.93636c-0.30558,-2.98741 0,-6.00601 0,-9.00901c0,0 0,-2.5 2.5,-2.5c2.5,0 2.5,2.5 2.5,2.5c0,3.003 0.53248,6.05359 0,9.00901c-0.0832,0.46177 -1.37286,1.17235 -0.91503,1.06965c1.04088,-0.23349 1.82985,-1.12136 2.82764,-1.49868c7.34698,-2.7783 16.17948,-6.73108 19.67361,-14.63219c0.58802,-1.32967 0.44486,-4.51401 0.44081,-5.9598v-1.5015c0,0 0,-2.5 2.5,-2.5z" fill="#797979" stroke="none" stroke-width="0.5" stroke-linecap="butt"/><path d="M396.28485,211.79415c-2.60341,4.59885 -5.66705,8.81823 -8.70664,13.20876c-3.24359,4.68519 -6.35172,10.56138 -10.31456,14.69384l-2.88682,4.04155c-0.45157,0.64913 -1.20302,1.07402 -2.0537,1.07402c-1.38071,0 -2.5,-1.11929 -2.5,-2.5c0,-0.05136 0.00155,-0.10235 0.0046,-0.15294l0.19322,-3.63054l0.10097,0.00537l-0.06748,-0.30117c0.25192,-0.85006 0.48944,-1.6527 0.71964,-2.43017c-0.08623,-0.00161 -0.1714,-0.00758 -0.25529,-0.01771c-0.06473,0.16563 -0.13154,0.33046 -0.20017,0.49459c0,0.17402 0,0.34804 0,0.52206l-0.22557,0.00119c-0.74958,1.69041 -1.66264,3.31784 -2.42978,5.00149l-2.34466,-5.00268c0,-6.17117 0,-12.34234 0,-18.51351c0,0 0,-1.90564 1.66376,-2.3894c0.35813,-0.94239 1.26972,-1.61211 2.33774,-1.61211c0.99801,0 1.85943,0.58479 2.26029,1.43041l0.86141,1.72283c3.2435,-9.85935 6.47986,-19.71757 9.53494,-29.64259c0.85298,-2.77108 2.28464,-9.39412 4.08493,-12.00244c0.13917,-0.63078 0.27972,-1.25983 0.42209,-1.88687l0.24071,-0.22095l-0.12092,-0.06046l1.47728,-2.95456c0.40086,-0.84561 1.26228,-1.43041 2.26029,-1.43041c1.38071,0 2.5,1.11929 2.5,2.5c0,0.32934 -0.06368,0.64381 -0.17941,0.93176l-1.73539,4.6277c-0.02003,0.11572 -0.12697,0.43067 -0.28832,0.8703c-2.98679,13.96054 -5.8757,28.39011 -12.51352,40.98206c0.72132,0.43854 1.20312,1.23187 1.20312,2.13774v3.003h-0.05101c0.01196,0.12034 0.02025,0.24133 0.02451,0.36303c0.0626,1.7866 -1.00636,3.43085 -1.51567,5.14447c-0.10025,0.33729 -0.19604,0.65907 -0.28818,0.9681c0.09577,-0.13316 0.19195,-0.26848 0.2884,-0.4062c5.385,-7.68914 11.36869,-15.26463 15.55848,-23.67159l2.21185,-4.42369c0.40086,-0.84561 1.26228,-1.43041 2.26029,-1.43041c1.38071,0 2.5,1.11929 2.5,2.5c0,0.22641 -0.0301,0.4458 -0.08651,0.65437l-1.45572,5.88702c0,0 -0.50969,2.06121 -2.4892,1.91475z" fill="#000000" stroke="none" stroke-width="0.5" stroke-linecap="butt"/><path d="M123.13688,50.6633c-2.04468,-1.43849 -0.60619,-3.48318 -0.60619,-3.48318l1.846,-2.589c1.06103,-2.85438 2.75884,-5.45977 3.70529,-8.35191c-0.00045,-0.31695 -0.00068,-0.63388 -0.00063,-0.95078c0,-0.00005 0,-0.0001 0,-0.00015l0,-0.26127c-0.13614,-0.52551 -0.31109,-1.04853 0.00001,-1.4234l0.00002,-3.00304c0,0 0,0 0,0c0.00001,-1.3807 1.11929,-2.49998 2.5,-2.49998c1.38071,0 2.5,1.11929 2.5,2.5v3.003c0.2639,0.98486 0.25178,2.02635 0.05959,3.09253c0.65018,-1.57556 1.47038,-2.98897 3.09729,-4.82354l2.75199,-4.12799c0.44514,-0.68925 1.2201,-1.14551 2.10163,-1.14551c1.38071,0 2.5,1.11929 2.5,2.5v4.5045l-0.10532,0l0.08218,0.33937c-1.19298,4.37858 -2.47996,8.73428 -3.64067,13.12119c-0.1497,0.56578 -2.41119,9.7218 -2.54128,10.03963c-1.21991,2.9802 -3.09568,5.59947 -5.21182,8.01098l0.17339,0.10837l-2.62706,4.20329c-0.43745,0.72608 -1.23348,1.21171 -2.14294,1.21171c-1.38071,0 -2.5,-1.11929 -2.5,-2.5v-3.003c0.00001,-1.41171 -0.01972,-7.67017 0.1013,-8.15524c0.30079,-1.20567 0.92142,-2.29575 1.54483,-3.38429c0.27878,-1.39772 0.7765,-2.85076 1.3646,-4.31127c0.00494,-0.45193 0.00885,-0.90392 0.01187,-1.35595l-1.48091,2.12873c0,0 -1.43849,2.04468 -3.48318,0.60619zM133.00759,52.33366c-0.01551,0.7957 -0.03393,1.59139 -0.05579,2.3871c0.61814,-1.65179 0.9756,-3.38728 1.31789,-5.12856c-0.40613,0.91539 -0.82486,1.82816 -1.2621,2.74146z" fill="#000000" stroke="none" stroke-width="0.5" stroke-linecap="butt"/><path d="M117.64449,286.47447c0.40519,-0.15316 0.91072,-0.19775 1.5373,-0.03943c2.42383,0.61242 1.81141,3.03625 1.81141,3.03625l-0.84714,3.29326c-0.78231,1.57551 -1.71583,3.08216 -2.7602,4.51158l0.41657,0.20829l-1.47728,2.95456c-0.40086,0.84561 -1.26228,1.43041 -2.26029,1.43041c-1.38071,0 -2.5,-1.11929 -2.5,-2.5v-4.5045h0.05907l-0.05168,-0.19208c0.68646,-4.48714 0.90832,-9.47759 2.15634,-13.82833c0.36571,-1.27491 3.44841,-7.7906 3.95478,-9.24365c1.28505,-3.68746 1.36596,-7.28936 3.15443,-10.88701c1.08821,-2.18901 2.01545,-4.46516 2.77135,-6.78993c0.25138,-0.77312 1.33863,-1.8333 0.69995,-2.33628c-0.74189,-0.58427 -1.79792,0.63033 -2.73674,0.73223c-3.0538,0.33148 -6.14348,-0.00349 -9.21521,-0.00852c-1.17258,-0.19306 -9.50859,-1.53238 -9.94676,-1.77006c-1.74833,-0.94838 -3.19595,-2.53435 -4.16875,-4.26921c-0.91861,-1.63822 -0.06564,-4.01929 -1.21991,-5.50094c-0.98447,-1.2637 -2.60878,-2.05569 -3.2846,-3.50807c-1.66481,-3.57778 0.66104,-8.5624 1.34348,-11.86767c0.66275,-3.20987 -0.25733,-7.45425 0.03365,-10.65248c0.81219,-8.92702 3.2468,-18.78257 6.06837,-27.27517c0,0 0.79057,-2.37171 3.16228,-1.58114c2.37171,0.79057 1.58114,3.16228 1.58114,3.16228c-2.71743,8.12379 -5.05506,17.60365 -5.83235,26.14707c-0.31391,3.45025 0.58794,7.57256 -0.07764,11.00036c-0.46111,2.37476 -1.38704,4.68934 -1.46922,7.10705c-0.02327,0.68465 -0.52364,1.44783 -0.1903,2.04629c0.59917,1.07573 1.99902,1.50076 2.72141,2.49794c0.84723,1.16951 1.52508,2.49754 1.90652,3.8904c0.23099,0.84347 -0.44352,1.80683 -0.12342,2.62068c0.30846,0.78426 1.05043,1.43494 1.83726,1.73679c2.54105,0.97484 5.38764,0.77968 8.07126,1.23294c2.93427,-0.00521 5.87595,-0.21697 8.80281,-0.00852c2.09964,0.14954 4.8293,-0.8003 6.27227,0.73223c2.54792,2.70606 0.07691,9.09793 -0.95957,11.73348c-0.80032,2.03506 -2.29778,3.77277 -2.94802,5.86064c-0.75163,2.41342 -0.65724,5.04714 -1.47869,7.4377c-1.07737,3.13535 -3.00947,5.95248 -3.9236,9.13925c-0.3911,1.36341 -0.66879,2.79404 -0.89027,4.25134z" fill="#000000" stroke="none" stroke-width="0.5" stroke-linecap="butt"/></g></g></svg>