<svg version="1.1" xmlns="http://www.w3.org/2000/svg" xmlns:xlink="http://www.w3.org/1999/xlink" width="125.75" height="122.15621" viewBox="0,0,125.75,122.15621"><g transform="translate(-176.5625,-110.46031)"><g data-paper-data="{&quot;isPaintingLayer&quot;:true}" fill-rule="nonzero" stroke-linejoin="miter" stroke-miterlimit="10" stroke-dasharray="" stroke-dashoffset="0" style="mix-blend-mode: normal"><path d="M261.5625,150l14,-19v57" fill="none" stroke="#00daff" stroke-width="13.5" stroke-linecap="round"/><path d="M275.5625,130l20,16" fill="none" stroke="#00daff" stroke-width="13.5" stroke-linecap="round"/><path d="M264.45536,168.5c0,15.74012 -12.95976,28.5 -28.94643,28.5c-15.98667,0 -28.94643,-12.75988 -28.94643,-28.5c0,-15.74012 12.95976,-28.5 28.94643,-28.5c15.98667,0 28.94643,12.75988 28.94643,28.5z" fill="#ff0000" stroke="#000000" stroke-width="3" stroke-linecap="butt"/><path d="M251.88383,167.41048c-0.05707,-0.15238 -0.11287,-0.30641 -0.16738,-0.4618c-0.05955,-0.16974 -0.12436,-0.34543 -0.19187,-0.52562c0.00078,0.03225 0.00057,0.06438 -0.00082,0.09639c-0.01544,0.35537 -0.52996,0.89747 -0.20713,1.04682c0.19287,0.08923 0.37838,-0.01383 0.5672,-0.15579zM261.49978,156.70918c0.01937,0.41703 0.03744,0.84831 0.06272,1.29082c0.11306,1.97913 -0.06153,3.69522 -0.42367,5.36366c1.09234,1.09406 2.51513,2.17851 2.42367,3.63634c-0.18897,3.0122 -2.58182,4.62263 -5.28201,5.40219c-0.09737,0.14851 -0.20764,0.28877 -0.33387,0.41879c-1.45182,1.49535 -3.30237,3.07802 -5.38412,3.17902c-2.76747,0.13427 -6.36703,-3.86332 -8.48853,-6.19041c-2.95864,0.19918 -5.7083,0.69286 -8.57905,0.97799l-3.25364,2.67958c-1.87566,0.17599 -7.5154,0.92521 -9.80006,0.44246c-5.0072,-1.05804 -8.28124,-3.75459 -10.61582,-7.45391c-1.96316,-0.73094 -4.2629,-2.44345 -4.2629,-6.45571c0,-1.90986 0.52108,-3.29863 1.2789,-4.3085c0.48126,-1.67805 1.70709,-3.39881 4.50751,-4.33228c3.57666,-1.19222 5.86908,0.18403 7.22311,1.70789c0.3706,0.00736 0.74119,0.01516 1.11176,0.02329l4.09232,1.26883c0,0 0.54038,0.18013 1.26146,0.59176c1.03523,-0.60456 2.23963,-0.95098 3.52495,-0.95098c3.86599,0 7,3.13401 7,7c0,0.09759 -0.002,0.19472 -0.00595,0.29134c0.81539,1.18036 1.13159,2.3368 1.15426,3.40077c0.56344,-0.13033 1.12744,-0.25986 1.69281,-0.3522c-0.10485,-1.07877 -0.00435,-2.18815 0.28761,-3.20927c1.50785,-5.27364 5.88707,-7.12698 10.56975,-7.77815c1.22465,-1.00647 2.38606,-2.20418 3.90332,-2.32596c4.77666,-0.38339 5.86146,1.20986 6.19044,3.74651c0.13019,0.33973 0.20776,0.74456 0.20776,1.22695c0,0.25793 -0.02218,0.49369 -0.06272,0.70918zM255.72101,159.40555c0.00459,-0.15855 0.01009,-0.31684 0.01775,-0.47459c-0.40403,-0.01073 -0.80646,-0.01789 -1.20626,-0.01639c-0.04805,0.14272 -0.09567,0.28562 -0.14322,0.42855c0.45139,-0.05178 0.89659,-0.02545 1.33173,0.06243z" fill="#000000" stroke="none" stroke-width="0.5" stroke-linecap="butt"/><path d="M247.24578,178.65836c1.34164,2.68328 -1.34164,4.02492 -1.34164,4.02492l-0.84549,-0.01918c-2.27973,3.39203 -5.08063,8.09522 -10.18541,7.25565c-2.00308,-0.32944 -2.56724,-3.4113 -4.45879,-4.14811c-0.57957,-0.22576 -1.23463,0.15224 -1.85195,0.22836c0,0 -3,0 -3,-3c0,-3 3,-3 3,-3c1.38268,0.07612 2.8642,-0.29061 4.14805,0.22836c1.23091,0.49758 2.07471,1.67292 2.97327,2.65032c0.29983,0.32613 0.16207,1.02401 0.56794,1.20157c0.85793,0.37532 1.42921,-1.23281 1.99071,-1.98222c0.66157,-0.88298 1.21592,-1.84142 1.82388,-2.76213l3.15451,-2.01918c0,0 2.68328,-1.34164 4.02492,1.34164z" fill="#000000" stroke="none" stroke-width="0.5" stroke-linecap="butt"/><text transform="translate(213.5625,227.5755) scale(0.89221,0.89221)" font-size="40" xml:space="preserve" fill="#42ff00" fill-rule="nonzero" stroke="none" stroke-width="1" stroke-linecap="butt" stroke-linejoin="miter" stroke-miterlimit="10" stroke-dasharray="" stroke-dashoffset="0" font-family="Marker" font-weight="normal" text-anchor="start" style="mix-blend-mode: normal"><tspan x="0" dy="0">UP1</tspan></text><path d="M181.5625,142l6,29" fill="none" stroke="#efff00" stroke-width="10" stroke-linecap="round"/><path d="M201.5625,194c0,4.41828 -3.80558,8 -8.5,8c-4.69442,0 -8.5,-3.58172 -8.5,-8c0,-4.41828 3.80558,-8 8.5,-8c4.69442,0 8.5,3.58172 8.5,8z" fill="#efff00" stroke="none" stroke-width="0" stroke-linecap="butt"/></g></g></svg>