<svg version="1.1" xmlns="http://www.w3.org/2000/svg" xmlns:xlink="http://www.w3.org/1999/xlink" width="78.95109" height="52.9999" viewBox="0,0,78.95109,52.9999"><g transform="translate(-213.38974,-154.36849)"><g data-paper-data="{&quot;isPaintingLayer&quot;:true}" fill-rule="nonzero" stroke-linejoin="miter" stroke-miterlimit="10" stroke-dasharray="" stroke-dashoffset="0" style="mix-blend-mode: normal"><path d="M239.81854,206.3684c-14.08321,-0.03932 -25.46802,-11.4879 -25.4287,-25.5711c0.03932,-14.08321 11.4879,-25.46802 25.5711,-25.4287c14.08321,0.03932 25.46802,11.4879 25.4287,25.5711c-0.03932,14.08321 -11.4879,25.46802 -25.5711,25.4287z" fill="#ff0000" stroke="#000000" stroke-width="2" stroke-linecap="butt"/><path d="M233.59104,198.30058l53.99979,0.15078" fill="none" stroke="#a7a7a7" stroke-width="9.5" stroke-linecap="round"/><path d="M250.94951,191.27165c-0.29941,-0.18567 -0.55112,-0.41085 -0.73792,-0.68377c-0.85528,-1.24967 0.25152,-3.0186 0.42033,-4.52349c0.27541,-2.45509 2.32675,-5.87084 1.58548,-8.18918c-0.67643,-2.11556 -3.70342,-3.00735 -4.20109,-5.17195c-0.23291,-1.01302 2.32519,-6.89525 3.42698,-7.49836c0.10235,-0.05602 0.21102,-0.10737 0.32533,-0.15412c0.00591,-0.2143 0.12471,-2.48347 2.50667,-2.47682c2.49999,0.00698 2.49301,2.50697 2.49301,2.50697c-0.00013,0.01303 -0.00017,0.02676 -0.00013,0.04118c1.31557,0.41387 2.46942,1.11185 3.01913,2.05113c1.3102,2.2387 0.22466,7.15289 -2.32728,8.33138c-0.23808,0.10995 -0.46768,0.21019 -0.68907,0.3011c0.09189,0.20629 0.17144,0.41748 0.23595,0.63393c0.84798,2.8454 -0.50173,5.35263 -1.09975,8.02446c-0.08817,0.39393 0.0201,1.71875 -0.36148,2.59782c0.73529,-0.07084 1.4933,0.06865 2.23648,0.07073c1.19402,0.21507 2.38805,0.43015 3.58206,0.64522l0.41998,0.69728l0.22844,-0.22716l1.88261,1.89315c0.45115,0.45367 0.72922,1.07945 0.72729,1.76981c-0.00386,1.3807 -1.12627,2.49686 -2.50697,2.49301l-3.02061,-0.00843l0.00067,-0.23968c-0.92811,0.14524 -1.86164,0.23126 -2.79902,0.22703l-3.17425,-0.40091c0,0 -2.42188,-0.3096 -2.17283,-2.71031z" fill="#000000" stroke="none" stroke-width="0.5" stroke-linecap="butt"/><path d="M262.72837,198.35046c0,-1.65686 1.34314,-3 3,-3c1.65686,0 3,1.34314 3,3c0,1.65686 -1.34314,3 -3,3c-1.65686,0 -3,-1.34314 -3,-3z" fill="#66cfff" stroke="none" stroke-width="0.5" stroke-linecap="butt"/><path d="M278.29699,188.35175c1.96859,3.49964 2.05095,13.69717 -4.15625,13.69717c-6.1553,0 -4.96134,-7.99554 -4.75,-11.32217v0c0,-0.12939 0.00518,-0.25757 0.01533,-0.38435c0.19567,-2.44361 2.24071,-4.36565 4.73467,-4.36565c1.54579,0 2.91911,0.73838 3.78652,1.88168c0.14157,0.14623 0.26621,0.30929 0.36973,0.49332z" fill="#a7a7a7" stroke="none" stroke-width="0.5" stroke-linecap="butt"/><path d="M243.12012,185.71386c1.20209,0.68691 2.85824,0.9228 3.78652,1.88168c0.14157,0.14623 0.26621,0.30929 0.36973,0.49332c1.89953,3.37689 1.1955,11.06829 -4.15625,11.06829c-4.96488,0 -6.63438,-9.65222 -4.09363,-11.10408z" fill="#a7a7a7" stroke="none" stroke-width="0.5" stroke-linecap="butt"/><path d="M252.84692,198.61334h7.8866" fill="none" stroke="#767676" stroke-width="7" stroke-linecap="round"/><path d="M244.59434,198.35561c0,-1.65686 1.34314,-3 3,-3c1.65686,0 3,1.34314 3,3c0,1.65686 -1.34314,3 -3,3c-1.65686,0 -3,-1.34314 -3,-3z" fill="#66cfff" stroke="none" stroke-width="0.5" stroke-linecap="butt"/></g></g></svg>