<svg version="1.1" xmlns="http://www.w3.org/2000/svg" xmlns:xlink="http://www.w3.org/1999/xlink" width="53" height="53" viewBox="0,0,53,53"><g transform="translate(-213.5,-153.5)"><g data-paper-data="{&quot;isPaintingLayer&quot;:true}" fill-rule="nonzero" stroke-linecap="butt" stroke-linejoin="miter" stroke-miterlimit="10" stroke-dasharray="" stroke-dashoffset="0" style="mix-blend-mode: normal"><path d="M265.5,180c0,14.08326 -11.41674,25.5 -25.5,25.5c-14.08326,0 -25.5,-11.41674 -25.5,-25.5c0,-14.08326 11.41674,-25.5 25.5,-25.5c14.08326,0 25.5,11.41674 25.5,25.5z" fill="#00ff2d" stroke="#000000" stroke-width="2"/><path d="M256.84117,179.73969c-1.79285,0 -2.29997,-1.28572 -2.44342,-2.01308c-1.22531,-2.20354 -2.43797,-4.35701 -3.84289,-6.461c0,0 -1.38675,-2.08013 0.69338,-3.46688c2.08013,-1.38675 3.46688,0.69338 3.46688,0.69338c1.57497,2.36601 2.93194,4.78747 4.31145,7.27058l0.31461,1.47699c0,0 0,2.5 -2.5,2.5z" fill="#ff0000" stroke="none" stroke-width="0.5"/><path d="M257.40759,189.09778c1.28624,2.14373 -0.85749,3.42997 -0.85749,3.42997l-1.10067,0.64493c-2.10309,1.57732 -4.20619,3.15464 -6.30928,4.73196c0,0 -2,1.5 -3.5,-0.5c-1.5,-2 0.5,-3.5 0.5,-3.5c2.10309,-1.57732 4.20619,-3.15464 6.30928,-4.73196l1.52819,-0.93239c0,0 2.14373,-1.28624 3.42997,0.85749z" fill="#ff0000" stroke="none" stroke-width="0.5"/></g></g></svg>